<?xml version="1.0" encoding="iso-8859-1"?>
<!-- Uploaded to: SVG Repo, www.svgrepo.com, Generator: SVG Repo Mixer Tools -->
<!DOCTYPE svg PUBLIC "-//W3C//DTD SVG 1.1//EN" "http://www.w3.org/Graphics/SVG/1.1/DTD/svg11.dtd">
<svg fill="#ffffff" height="800px" width="800px" version="1.1" id="Capa_1" xmlns="http://www.w3.org/2000/svg" xmlns:xlink="http://www.w3.org/1999/xlink"
	 viewBox="0 0 297 297" xml:space="preserve">
<g>
	<path d="M186.667,28.883c0.733,2.701,1.175,4.33,8.206,12.451c3.533,4.08,8.509,12.68,12.481,23.387l18.51-5.76
		c-2.804-11.07-3.585-20.975-2.991-26.34c1.183-10.676,0.622-12.269-0.307-14.908c-0.218-0.618-0.449-1.277-0.686-2.038
		c-2.032-6.531-8.953-14.446-18.42-14.446c-1.734,0-3.553,0.265-5.444,0.853c-12.213,3.799-14.345,17.005-11.94,24.734
		C186.312,27.577,186.496,28.25,186.667,28.883z"/>
	<path d="M213.686,93.172l23.107-7.19c-3.323-5.555-5.973-11.507-8.036-17.412l-18.333,5.704
		C212.076,80.307,213.271,86.712,213.686,93.172z"/>
	<path d="M95.609,106.61l-13.704-7.2c-2.517,4.348-5.459,8.646-8.835,12.581l17.193,9.033
		C91.587,116.011,93.457,111.15,95.609,106.61z"/>
	<path d="M114.552,80.068c7.183-5.75,7.794-7.026,8.807-9.139c0.25-0.52,0.516-1.075,0.843-1.696
		c1.769-3.366,2.382-7.917,1.6-11.877c-0.631-3.197-2.47-7.577-7.648-10.297c0,0,0,0,0-0.001c-5.18-2.72-9.83-1.748-12.819-0.456
		c-3.704,1.603-7.104,4.69-8.872,8.056c-0.327,0.622-0.632,1.156-0.92,1.657c-1.165,2.033-1.868,3.259-2.528,12.436
		c-0.333,4.633-2.507,12.824-6.53,21.729l13.882,7.293C105.415,89.408,110.926,82.971,114.552,80.068z"/>
	<path d="M84.18,129.164L65.594,119.4c-3.153,2.625-6.576,4.892-10.279,6.632c-16.842,7.912-29.868,20.968-39.822,39.914
		C6.959,182.19,0.548,206.997,0.006,223.518c-0.142,4.335,2.274,8.353,6.114,10.371l21.744,11.424
		c3.909,2.054,8.637,1.661,12.181-0.972c0.726-0.539,1.462-1.107,2.206-1.7c-3.039-9.454-4.687-19.525-4.687-29.976
		C37.564,177.434,56.226,146.483,84.18,129.164z"/>
	<path d="M135.723,129.558c-45.825,0-83.107,37.282-83.107,83.107c0,45.825,37.282,83.106,83.107,83.106
		s83.107-37.282,83.107-83.106C218.83,166.84,181.548,129.558,135.723,129.558z M135.723,190.007
		c-6.257,0-11.329-5.072-11.329-11.329c0-6.257,5.072-11.329,11.329-11.329c6.257,0,11.329,5.072,11.329,11.329
		C147.052,184.934,141.98,190.007,135.723,190.007z M158.381,223.994c-6.257,0-11.329-5.072-11.329-11.329
		c0-6.257,5.072-11.329,11.329-11.329c6.257,0,11.329,5.072,11.329,11.329C169.71,218.922,164.638,223.994,158.381,223.994z
		 M181.039,190.007c-6.257,0-11.329-5.072-11.329-11.329c0-6.257,5.072-11.329,11.329-11.329c6.257,0,11.329,5.072,11.329,11.329
		C192.368,184.934,187.296,190.007,181.039,190.007z"/>
	<path d="M290.218,158.272c-7.355-23.639-19.449-41.23-36.972-53.773c-3.907-2.797-7.37-6.156-10.428-9.883l-29.195,9.084
		c-0.404,4.804-1.35,9.535-2.98,14.055c-3.024,8.385-4.774,16.957-5.289,25.796c17.623,17.753,28.527,42.184,28.527,69.115
		c0,4.889-0.364,9.694-1.058,14.393c4.46,6.54,9.069,12.36,13.422,16.822c2.989,3.063,7.457,4.16,11.543,2.888l29.835-9.283
		c4.079-1.269,7.14-4.698,7.863-8.908C298.715,209.767,296.696,179.092,290.218,158.272z"/>
</g>
</svg>
